# AST/ASF file generated using VICON BodyLanguage
# -----------------------------------------------
:version 1.10
:name VICON
:units
  mass 1.0
  length 0.45
  angle deg
:documentation
   .ast/.asf automatically generated from VICON data using
   VICON BodyBuilder and BodyLanguage model FoxedUp or BRILLIANT.MOD
:root
   order TX TY TZ RX RY RZ
   axis XYZ
   position 0 0 0  
   orientation 0 0 0 
:bonedata
  begin
     id 1 
     name lhipjoint
     direction 0.702568 -0.596508 0.388042 
     length 2.56661 
     axis 0 0 0  XYZ
  end
  begin
     id 2 
     name lfemur
     direction 0.34202 -0.939693 0  
     length 6.58374  
     axis 0 0 20  XYZ
    dof rx ry rz
    limits (-160.0 20.0)
           (-70.0 70.0)
           (-60.0 70.0)
  end
  begin
     id 3 
     name ltibia
     direction 0.34202 -0.939693 0   
     length 6.62538   
     axis 0 0 20   XYZ
    dof rx
    limits (-10.0 170.0)
  end
  begin
     id 4 
     name lfoot
     direction 0.10455 -0.287249 0.952133   
     length 2.26699   
     axis -90 7.62852e-016 20   XYZ
    dof rx rz
    limits (-45.0 90.0)
           (-70.0 20.0)
  end
  begin
     id 5 
     name ltoes
     direction 1.53572e-011 -4.22322e-011 1   
     length 1.12949   
     axis -90 7.62852e-016 20   XYZ
    dof rx
    limits (-90.0 20.0)
  end
  begin
     id 6 
     name rhipjoint
     direction -0.728055 -0.574632 0.373811   
     length 2.66432  
     axis 0 0 0  XYZ 
  end
  begin
     id 7 
     name rfemur
     direction -0.34202 -0.939693 0   
     length 6.66732   
     axis 0 0 -20   XYZ
    dof rx ry rz
    limits (-160.0 20.0)
           (-70.0 70.0)
           (-70.0 60.0)
  end
  begin
     id 8 
     name rtibia
     direction -0.34202 -0.939693 0   
     length 6.59288   
     axis 0 0 -20   XYZ
    dof rx
    limits (-10.0 170.0)
 end
 begin
     id 9 
     name rfoot
     direction -0.119193 -0.327479 0.93731   
     length 2.38061  
     axis -90 -7.62852e-016 -20   XYZ
    dof rx rz
    limits (-45.0 90.0)
           (-20.0 70.0)
  end
  begin
     id 10 
     name rtoes
     direction -1.53547e-011 -4.21827e-011 1   
     length 1.17899   
     axis -90 -7.62852e-016 -20   XYZ
    dof rx
    limits (-90.0 20.0)
  end
  begin
     id 11 
     name lowerback
     direction -0.000416114 0.999912 -0.0132284   
     length 2.12109   
     axis 0 0 0   XYZ
    dof rx ry rz
    limits (-20.0 45.0)
           (-30.0 30.0)
           (-30.0 30.0)
  end
  begin
     id 12 
     name upperback
     direction -0.00136371 0.99809 0.0617608   
     length 2.10067   
     axis 0 0 0   XYZ
    dof rx ry rz
    limits (-20.0 45.0)
           (-30.0 30.0)
           (-30.0 30.0)
  end
  begin
     id 13 
     name thorax
     direction -3.43026e-005 0.997776 0.0666515   
     length 2.10618   
     axis 0 0 0   XYZ
    dof rx ry rz
    limits (-20.0 45.0)
           (-30.0 30.0)
           (-30.0 30.0)
  end
  begin
     id 14 
     name lowerneck
     direction 0.0398646 0.998418 0.0396592   
     length 1.83817   
     axis 0 0 0   XYZ
    dof rx ry rz
    limits (-20.0 45.0)
           (-30.0 30.0)
           (-30.0 30.0)
  end
  begin
     id 15 
     name upperneck
     direction -0.0367268 0.961527 -0.272244   
     length 1.81975   
     axis 0 0 0   XYZ
    dof rx ry rz
    limits (-20.0 45.0)
           (-30.0 30.0)
           (-30.0 30.0)
  end
  begin
     id 16
     name head
     direction -0.0182665 0.99536 -0.0944669  
     length 1.86026  
     axis 0 0 0   XYZ
    dof rx ry rz
    limits (-20.0 45.0)
           (-30.0 30.0)
           (-30.0 30.0)
  end
  begin
     id 17 
     name lclavicle
     direction 0.924239 0.361045 0.124212  
     length 3.26878  
     axis 0 0 0   XYZ
    dof ry rz
    limits (-20.0 10.0)
           (0.0 20.0)
  end
  begin
     id 18 
     name lhumerus
     direction 1 -4.48968e-011 -2.56583e-027   
     length 4.58538   
     axis 180 -30 -90   XYZ
    dof rx ry rz
    limits (-60.0 90.0)
           (-90.0 90.0)
           (-90.0 90.0)
  end
  begin
     id 19
     name lradius
     direction 1 -4.4898e-011 -5.50375e-027   
     length 2.68935   
     axis 180 -30 -90   XYZ
    dof rx
    limits (-10.0 170.0)
  end
  begin
     id 20
     name lwrist
     direction 1 -4.48939e-011 -1.48955e-026   
     length 1.34468   
     axis 9.0955e-015 90 90   XYZ
    dof ry
    limits (-180.0 0.0)
 end
  begin
     id 21 
     name lhand
     direction 1 -4.48936e-011 -2.97907e-026   
     length 0.585058   
     axis 1.90115e-014 90 90   XYZ
    dof rx rz
    limits (-90.0 90.0)
           (-45.0 45.0)
  end
  begin
     id 22 
     name lfingers
     direction 1 -4.49082e-011 -5.96235e-026   
     length 0.471689   
     axis 3.80223e-014 90 90   XYZ
    dof rx
    limits (0.0 90.0)
  end
  begin
     id 23
     name lthumb
     direction 0.707107 -6.3489e-011 0.707107   
     length 0.677253   
     axis -90 45 -3.84942e-014   XYZ
    dof rx rz
    limits (-45.0 45.0)
           (-45.0 45.0)
  end
  begin
     id 24 
     name rclavicle
     direction -0.923098 0.371783 0.0983239   
     length 3.19656  
     axis 0 0 0   XYZ 
    dof ry rz
    limits (-10.0 20.0)
           (-20.0 0.0)
  end
  begin
     id 25 
     name rhumerus
     direction -1 -4.48976e-011 -2.5492e-027  
     length 4.4745   
     axis 180 30 90   XYZ
    dof rx ry rz
    limits (-90.0 60.0)
           (-90.0 90.0)
           (-90.0 90.0)
  end
  begin
     id 26 
     name rradius
     direction -1 -4.48941e-011 -4.36555e-027   
     length 2.93896   
     axis 180 30 90   XYZ
    dof rx
    limits (-10.0 170.0)
  end
  begin
     id 27 
     name rwrist
     direction -1 -4.49044e-011 -1.49032e-026   
     length 1.46948   
     axis 9.0955e-015 -90 -90   XYZ
    dof ry
    limits (-180.0 0.0)
  end
  begin
     id 28
     name rhand
     direction -1 -4.48826e-011 -2.97749e-026   
     length 0.405092   
     axis 1.90115e-014 -90 -90   XYZ
    dof rx rz
    limits (-90.0 90.0)
           (-45.0 45.0)
  end
  begin
     id 29
     name rfingers
     direction -1 -4.49209e-011 -5.96602e-026   
     length 0.326596   
     axis 3.80223e-014 -90 -90   XYZ
    dof rx
    limits (0.0 90.0)
  end
  begin
     id 30
     name rthumb
     direction -0.707107 -6.34776e-011 0.707107   
     length 0.468928   
     axis -90 -45 3.84942e-014   XYZ
    dof rx rz
    limits (-45.0 45.0)
           (-45.0 45.0)
  end
:hierarchy
  begin
    root lhipjoint rhipjoint lowerback
    lhipjoint lfemur
    lfemur ltibia
    ltibia lfoot
    lfoot ltoes
    rhipjoint rfemur
    rfemur rtibia
    rtibia rfoot
    rfoot rtoes
    lowerback upperback
    upperback thorax
    thorax lowerneck lclavicle rclavicle
    lowerneck upperneck
    upperneck head
    lclavicle lhumerus
    lhumerus lradius
    lradius lwrist
    lwrist lhand lthumb
    lhand lfingers
    rclavicle rhumerus
    rhumerus rradius
    rradius rwrist
    rwrist rhand rthumb
    rhand rfingers
  end

#!OML:ASF H:\Punching\Project 1\Capture day 1\Session 1\female.ASF
:FULLY-SPECIFIED
:DEGREES
1
root 1.27356 15.5918 5.71323 5.23043 -14.3998 4.41032
lowerback -4.72036 -1.67048 -4.71459
upperback -7.48884 -2.24512 -0.728465
thorax -4.99086 -0.916986 1.86975
lowerneck -9.08416 -7.33977 -2.68995
upperneck 28.9447 -10.0854 -0.677413
head 10.9169 -5.07671 -1.0131
rclavicle 8.7341e-015 2.38542e-015
rhumerus -38.7798 -0.852865 -79.413
rradius 29.0745
rwrist 8.66845
rhand -8.59524 -7.05714
rfingers 7.12502
rthumb 17.336 -36.304
lclavicle 8.7341e-015 2.38542e-015
lhumerus -55.8226 22.117 58.3678
lradius 26.1139
lwrist -23.0906
lhand -3.70699 14.4434
lfingers 7.12502
lthumb 22.0353 43.2081
rfemur -16.4354 11.5132 7.86068
rtibia 32.8365
rfoot -18.923 -20.5841
rtoes -3.87793
lfemur -2.48788 -10.2403 -25.6163
ltibia 15.5739
lfoot -17.5854 25.1116
ltoes 4.26542
2
root 1.2593 15.5905 5.72373 5.22392 -14.4236 4.38849
lowerback -4.79051 -1.72749 -4.75018
upperback -7.53037 -2.31824 -0.717879
thorax -4.98947 -0.951127 1.89835
lowerneck -9.1211 -7.38754 -2.751
upperneck 29.0302 -10.1773 -0.581145
head 10.9679 -5.11343 -0.985803
rclavicle -5.05286e-014 -1.74931e-014
rhumerus -38.8437 -1.28874 -78.9191
rradius 28.5307
rwrist 9.19562
rhand -8.6491 -7.18113
rfingers 7.12502
rthumb 17.2842 -36.4325
lclavicle -5.05286e-014 -1.74931e-014
lhumerus -55.7536 21.9638 58.6767
lradius 26.3032
lwrist -22.8205
lhand -3.72933 14.4381
lfingers 7.12502
lthumb 22.0139 43.2053
rfemur -16.3866 11.4193 7.94095
rtibia 32.8618
rfoot -18.9983 -20.4602
rtoes -3.83751
lfemur -2.3738 -10.3472 -25.5786
ltibia 15.5244
lfoot -17.4889 25.2647
ltoes 3.84723
3
root 1.24518 15.5895 5.73319 5.22273 -14.44 4.39744
lowerback -4.87659 -1.79036 -4.82531
upperback -7.56247 -2.39686 -0.699381
thorax -4.96717 -0.986305 1.95627
lowerneck -9.05404 -7.49295 -3.00967
upperneck 29.0057 -10.3419 -0.373843
head 10.9777 -5.19325 -0.888464
rclavicle -1.98039e-014 4.87022e-015
rhumerus -38.8874 -1.69394 -78.4032
rradius 27.9819
rwrist 9.70414
rhand -8.70781 -7.14599
rfingers 7.12502
rthumb 17.2277 -36.4023
lclavicle -1.98039e-014 4.87022e-015
lhumerus -55.6674 21.8882 58.9719
lradius 26.4904
lwrist -22.6088
lhand -3.79401 14.3709
lfingers 7.12502
lthumb 21.9518 43.1454
rfemur -16.3369 11.3369 7.98488
rtibia 32.8444
rfoot -19.022 -20.3735
rtoes -3.83848
lfemur -2.32442 -10.4658 -25.568
ltibia 15.5524
lfoot -17.7464 25.3862
ltoes 4.31311
4
root 1.2298 15.59 5.73999 5.25791 -14.4686 4.27652
lowerback -4.92381 -1.80973 -4.77771
upperback -7.59784 -2.42104 -0.668218
thorax -4.97668 -0.999421 1.96092
lowerneck -9.04953 -7.58315 -3.1385
upperneck 29.0058 -10.4957 -0.214683
head 10.9982 -5.25876 -0.831272
rclavicle -4.82053e-014 -1.53064e-014
rhumerus -38.9542 -2.22722 -77.8616
rradius 27.4182
rwrist 10.282
rhand -8.82432 -7.23618
rfingers 7.12502
rthumb 17.1155 -36.5023
lclavicle -4.82053e-014 -1.53064e-014
lhumerus -55.4631 21.6702 59.4442
lradius 26.7563
lwrist -22.192
lhand -3.84672 14.4551
lfingers 7.12502
lthumb 21.9011 43.2355
rfemur -16.3002 11.4183 8.18172
rtibia 32.8254
rfoot -19.0364 -20.4332
rtoes -3.91165
lfemur -2.28659 -10.5447 -25.4047
ltibia 15.5686
lfoot -17.7266 25.5075
ltoes 4.05842
5
root 1.21488 15.5898 5.74791 5.27578 -14.4891 4.20958
lowerback -4.98735 -1.84161 -4.77316
upperback -7.62728 -2.46062 -0.651236
thorax -4.96904 -1.01893 1.97393
lowerneck -9.04185 -7.6732 -3.28658
upperneck 29.0111 -10.6486 -0.0470002
head 11.0224 -5.32491 -0.768107
rclavicle -3.87009e-014 6.85807e-015
rhumerus -39.02 -2.7511 -77.3102
rradius 26.8604
rwrist 10.8821
rhand -8.93138 -7.26612
rfingers 7.12502
rthumb 17.0125 -36.5411
lclavicle -3.87009e-014 6.85807e-015
lhumerus -55.2788 21.478 59.8711
lradius 27.0094
lwrist -21.8242
lhand -3.88536 14.5001
lfingers 7.12502
lthumb 21.864 43.2848
rfemur -16.2516 11.4359 8.3158
rtibia 32.8041
rfoot -19.0622 -20.4321
rtoes -3.91296
lfemur -2.24098 -10.6455 -25.3057
ltibia 15.5917
lfoot -17.8069 25.632
ltoes 4.05082
6
root 1.19991 15.5898 5.75563 5.29366 -14.5057 4.14221
lowerback -5.04915 -1.86852 -4.76317
upperback -7.65121 -2.49372 -0.639873
thorax -4.95733 -1.03581 1.97806
lowerneck -9.04216 -7.76233 -3.42591
upperneck 29.0121 -10.8029 0.125946
head 11.0468 -5.38995 -0.705053
rclavicle 3.68746e-014 1.05356e-014
rhumerus -39.0937 -3.29879 -76.7486
rradius 26.3069
rwrist 11.5109
rhand -9.04745 -7.29015
rfingers 7.12502
rthumb 16.9008 -36.5748
lclavicle 3.68746e-014 1.05356e-014
lhumerus -55.0591 21.2538 60.3403
lradius 27.2937
lwrist -21.4095
lhand -3.90317 14.5806
lfingers 7.12502
lthumb 21.8469 43.3674
rfemur -16.1966 11.4612 8.45145
rtibia 32.7733
rfoot -19.0862 -20.44
rtoes -3.89901
lfemur -2.20456 -10.7453 -25.2052
ltibia 15.6312
lfoot -17.908 25.7496
ltoes 4.07763
7
root 1.18502 15.5897 5.76338 5.3106 -14.5155 4.08101
lowerback -5.11201 -1.89496 -4.75388
upperback -7.6687 -2.52603 -0.634291
thorax -4.93845 -1.05267 1.97637
lowerneck -9.05853 -7.84352 -3.54583
upperneck 29.0134 -10.9486 0.297484
head 11.0736 -5.44879 -0.645414
rclavicle 2.00897e-014 1.97294e-014
rhumerus -39.17 -3.86574 -76.1775
rradius 25.7552
rwrist 12.176
rhand -9.16078 -7.29592
rfingers 7.12502
rthumb 16.7917 -36.5898
lclavicle 2.00897e-014 1.97294e-014
lhumerus -54.8111 21.0031 60.8443
lradius 27.6119
lwrist -20.9585
lhand -3.89848 14.6802
lfingers 7.12502
lthumb 21.8514 43.4664
rfemur -16.1459 11.472 8.5805
rtibia 32.7578
rfoot -19.1229 -20.4402
rtoes -3.87748
lfemur -2.15389 -10.8462 -25.1115
ltibia 15.6412
lfoot -17.9785 25.8653
ltoes 4.06956
8
root 1.17025 15.5896 5.77138 5.32478 -14.5197 4.03176
lowerback -5.17675 -1.9237 -4.75251
upperback -7.68087 -2.56105 -0.632513
thorax -4.91259 -1.07082 1.97488
lowerneck -9.08492 -7.91477 -3.65366
upperneck 29.0123 -11.0814 0.46744
head 11.1006 -5.50035 -0.587122
rclavicle 6.72141e-015 4.87022e-015
rhumerus -39.2504 -4.43377 -75.6012
rradius 25.2109
rwrist 12.8662
rhand -9.26568 -7.2687
rfingers 7.12502
rthumb 16.6907 -36.5711
lclavicle 6.72141e-015 4.87022e-015
lhumerus -54.5491 20.7363 61.3707
lradius 27.9652
lwrist -20.4913
lhand -3.8735 14.7857
lfingers 7.12502
lthumb 21.8754 43.5691
rfemur -16.0952 11.4529 8.69589
rtibia 32.7483
rfoot -19.1662 -20.4176
rtoes -3.84932
lfemur -2.09659 -10.9517 -25.0321
ltibia 15.6403
lfoot -18.048 25.9807
ltoes 4.07583
9
root 1.15561 15.5894 5.77939 5.33786 -14.5174 3.99093
lowerback -5.23798 -1.95668 -4.75925
upperback -7.69181 -2.60171 -0.629613
thorax -4.88675 -1.09133 1.97901
lowerneck -9.1177 -7.97431 -3.75126
upperneck 29.0094 -11.1965 0.629538
head 11.1268 -5.54354 -0.5313
rclavicle 5.1448e-014 1.33683e-014
rhumerus -39.3361 -4.99404 -75.0191
rradius 24.6763
rwrist 13.5798
rhand -9.35459 -7.22076
rfingers 7.12502
rthumb 16.6051 -36.5304
lclavicle 5.1448e-014 1.33683e-014
lhumerus -54.2842 20.4627 61.9098
lradius 28.3444
lwrist -20.0229
lhand -3.8481 14.8728
lfingers 7.12502
lthumb 21.8998 43.6533
rfemur -16.0474 11.4088 8.80163
rtibia 32.7454
rfoot -19.211 -20.3801
rtoes -3.8313
lfemur -2.03505 -11.0599 -24.9619
ltibia 15.6283
lfoot -18.095 26.0954
ltoes 4.04641
10
root 1.14098 15.5893 5.78699 5.35486 -14.5128 3.95159
lowerback -5.29522 -1.99134 -4.771
upperback -7.70505 -2.64463 -0.621327
thorax -4.86503 -1.11241 1.99161
lowerneck -9.15541 -8.02161 -3.83729
upperneck 29.0072 -11.2911 0.775153
head 11.1521 -5.57794 -0.480786
rclavicle 5.10628e-015 7.50412e-015
rhumerus -39.4268 -5.55707 -74.4224
rradius 24.1491
rwrist 14.3261
rhand -9.42603 -7.15263
rfingers 7.12502
rthumb 16.5363 -36.468
lclavicle 5.10628e-015 7.50412e-015
lhumerus -54.0227 20.1852 62.4602
lradius 28.7435
lwrist -19.5585
lhand -3.84119 14.9223
lfingers 7.12502
lthumb 21.9065 43.7021
rfemur -16.0081 11.3626 8.9047
rtibia 32.7461
rfoot -19.2549 -20.3434
rtoes -3.81964
lfemur -1.97749 -11.1696 -24.8919
ltibia 15.61
lfoot -18.1344 26.2109
ltoes 4.01328
11
root 1.12647 15.5893 5.79447 5.37242 -14.5034 3.91761
lowerback -5.35568 -2.02954 -4.78675
upperback -7.71474 -2.69175 -0.610984
thorax -4.8372 -1.13551 2.00822
lowerneck -9.19353 -8.05884 -3.91499
upperneck 28.9954 -11.3683 0.908947
head 11.1722 -5.60501 -0.433266
rclavicle 2.43635e-014 2.03754e-014
rhumerus -39.5156 -6.11027 -73.827
rradius 23.6372
rwrist 15.0876
rhand -9.48743 -7.08797
rfingers 7.12502
rthumb 16.4772 -36.4083
lclavicle 2.43635e-014 2.03754e-014
lhumerus -53.7587 19.9162 63.0093
lradius 29.1539
lwrist -19.114
lhand -3.85538 14.9282
lfingers 7.12502
lthumb 21.8928 43.7096
rfemur -15.9711 11.306 9.00124
rtibia 32.749
rfoot -19.2997 -20.3023
rtoes -3.80983
lfemur -1.92143 -11.2798 -24.8272
ltibia 15.5891
lfoot -18.167 26.3226
ltoes 3.96855
12
root 1.11189 15.5895 5.80072 5.39696 -14.4969 3.87667
lowerback -5.40592 -2.06378 -4.79944
upperback -7.73117 -2.73434 -0.594797
thorax -4.8224 -1.15594 2.02974
lowerneck -9.2298 -8.08907 -3.98394
upperneck 28.9867 -11.4311 1.02163
head 11.1907 -5.62701 -0.392678
rclavicle -2.37299e-015 4.57205e-015
rhumerus -39.6147 -6.68247 -73.2134
rradius 23.1367
rwrist 15.8878
rhand -9.52672 -7.06175
rfingers 7.12502
rthumb 16.4394 -36.3852
lclavicle -2.37299e-015 4.57205e-015
lhumerus -53.4951 19.6378 63.5679
lradius 29.566
lwrist -18.6678
lhand -3.90964 14.8966
lfingers 7.12502
lthumb 21.8407 43.6841
rfemur -15.9473 11.2798 9.10488
rtibia 32.7517
rfoot -19.339 -20.2848
rtoes -3.78577
lfemur -1.8784 -11.3883 -24.7505
ltibia 15.5687
lfoot -18.195 26.4341
ltoes 3.92885
